/* XPM */
static char *aav9e_spfn3[] = {
/* columns rows colors chars-per-pixel */
"64 64 139 2 ",
"   c #000000",
".  c #090700",
"X  c #0D0A00",
"o  c #120D00",
"O  c #171100",
"+  c #1B1400",
"@  c #201700",
"#  c #241A00",
"$  c #2B1F00",
"%  c #362700",
"&  c #3B2B00",
"*  c #412F00",
"=  c #453200",
"-  c #4A3600",
";  c #4F3900",
":  c #543D00",
">  c #5D4400",
",  c #614700",
"<  c #664A00",
"1  c #6D4F00",
"2  c #745500",
"3  c #795800",
"4  c #815E00",
"5  c #846000",
"6  c #8B6400",
"7  c #8F6800",
"8  c #956C00",
"9  c #996F00",
"0  c #A37600",
"q  c #A77900",
"w  c #AB7C00",
"e  c #B07F00",
"r  c #B38100",
"t  c #B88500",
"y  c #BE8A00",
"u  c #C28D00",
"i  c #C79000",
"p  c #CE9500",
"a  c #D19700",
"s  c #D79B00",
"d  c #DB9E00",
"f  c #DDA000",
"g  c #E3A400",
"h  c #EDAB00",
"j  c #F0AD00",
"k  c #F5B100",
"l  c #FFB700",
"z  c #FFB901",
"x  c #FFB90C",
"c  c #FFBB14",
"v  c #FFBD1B",
"b  c #FFBE21",
"n  c #FFC026",
"m  c #FFC12B",
"M  c #FFC434",
"N  c #FFC63B",
"B  c #FFC741",
"V  c #FFC844",
"C  c #FFCA4C",
"Z  c #FFCC53",
"A  c #FFCE5C",
"S  c #FFCF61",
"D  c #FFD164",
"F  c #FFD36B",
"G  c #FFD672",
"H  c #FFD77A",
"J  c #FFD87E",
"K  c #FFDA84",
"L  c #FFDC8B",
"P  c #FFDE94",
"I  c #FFDF98",
"U  c #FFE096",
"Y  c #FFE19B",
"T  c #FFE3A4",
"R  c #FFE6AC",
"E  c #FFE7B2",
"W  c #FFE8B5",
"Q  c #FFEABC",
"!  c #FFEDC6",
"~  c #FFECC4",
"^  c #FFECC2",
"/  c #FFEEC9",
"(  c #FFEECC",
")  c #FFEFCC",
"_  c #FFEFCD",
"`  c #FFEFCE",
"'  c #FFEFCB",
"]  c #FFF0CE",
"[  c #FFF0CF",
"{  c #FFF0CF",
"}  c #FFF0D1",
"|  c #FFF1D4",
" . c #FFF1D5",
".. c #FFF1D6",
"X. c #FFF2D6",
"o. c #FFF2D7",
"O. c #FFF2D5",
"+. c #FFF2D8",
"@. c #FFF2D9",
"#. c #FFF3D9",
"$. c #FFF3DA",
"%. c #FFF3DB",
"&. c #FFF4DB",
"*. c #FFF3DC",
"=. c #FFF4DC",
"-. c #FFF5DF",
";. c #FFF3DA",
":. c #FFF5E0",
">. c #FFF5E1",
",. c #FFF6E3",
"<. c #FFF6E5",
"1. c #FFF7E6",
"2. c #FFF7E7",
"3. c #FFF6E4",
"4. c #FFF7E8",
"5. c #FFF8EB",
"6. c #FFF9EB",
"7. c #FFF9EC",
"8. c #FFF9ED",
"9. c #FFF9EE",
"0. c #FFFAEE",
"q. c #FFFAEF",
"w. c #FFF9EC",
"e. c #FFFAF0",
"r. c #FFFAF1",
"t. c #FFFBF2",
"y. c #FFFBF4",
"u. c #FFFBF5",
"i. c #FFFCF6",
"p. c #FFFCF7",
"a. c #FFFBF4",
"s. c #FFFDF8",
"d. c #FFFDFA",
"f. c #FFFDFB",
"g. c #FFFEFC",
"h. c #FFFEFD",
"j. c #FFFFFE",
"k. c #FFFFFF",
"l. c #FFFFFF",
/* pixels */
"                                                                                                                                ",
"                                                                                                                                ",
"                                                                                                                                ",
"                                                    X # * : < 2 2 2 > ; % + .                                                   ",
"                                              # > 9 i g k l z z z z l l h d t 5 - O                                             ",
"                                        o : q g l z z l l z x c c c x z l z z z k a 6 % .                                       ",
"                                    o , u k z l l v V F I E ^ ` } ` Q R L D N c l z z h 0 &                                     ",
"                                  - y l z l c Z T +.u.g.g.g.g.g.g.g.g.g.g.g.r.] L V x l z h 8 #                                 ",
"                              + 7 j z l b H } s.g.g.g.g.g.g.g.g.g.g.g.g.g.g.g.g.g.u.Q D c l z s > .                             ",
"                            % u z l c F o.g.g.g.g.g.g.g.g.g.g.g.g.g.g.g.g.g.g.g.g.g.g.s.^ Z z z k 7 o                           ",
"                          ; f z l N W g.g.g.g.g.g.g.g.g.g.g.g.g.g.g.g.g.g.g.g.g.g.g.g.g.g.i.Y b l z e #                         ",
"                        > h z z D 2.g.g.g.g.g.g.g.g.g.2.! T P K H K P R ] 0.g.g.g.g.g.g.g.g.g.] B l z y #                       ",
"                      : h z x K i.g.g.g.g.g.g.g.2.T A m x l l l l l l l c M F W 0.g.g.g.g.g.g.g.2.A l z y #                     ",
"                    * g z x P g.g.g.g.g.g.g.-.K m z l l l l l l l l l l l l l x N Y 0.g.g.g.g.g.g.0.D l z e o                   ",
"                  # p z z L g.g.g.g.g.g.i.Y m l l l l c b b x l x v b v z l l l l z B W g.g.g.g.g.g.0.A l z 7 .                 ",
"                . q z l G s.g.g.g.g.g.:.A z l l l l l U :.:.A l N o.:.Q v l l l l l l c K r.g.g.g.g.g.2.V l k >                 ",
"                < l l V 0.g.g.g.g.g.} N l l l l l l l R g.g.F l V i.g.+.v l l l l l l l l A 2.g.g.g.g.g.] b z s #               ",
"              # s z v / g.g.g.g.g.] M l l l l l l l l R g.g.F l V u.g.+.v l l l l l l l l l Z 2.g.g.g.g.g.Y x z 8               ",
"              6 z l K g.g.g.g.g.+.M l l l l l l l l l R g.g.F l V u.g.+.v l l l l l l l l l l A r.g.g.g.g.i.Z l h &             ",
"            $ g z M 5.g.g.g.g.r.Z l l l l c v v v v v W g.g.K b S i.g.-.m z l l l l l l l l l l J g.g.g.g.g.! c z 0 .           ",
"            4 z l Y g.g.g.g.g.L l l l l c W o.o.o.o.o.r.g.g.r.2.0.g.g.s.} W L C c l l l l l l l c W g.g.g.g.g.F l h %           ",
"          + a z m 2.g.g.g.g.] v l l l l v -.g.g.g.g.g.g.g.g.g.g.g.g.g.g.g.g.g.i.^ C l l l l l l l N 5.g.g.g.g.! c z 6           ",
"          : l l J g.g.g.g.s.D l l l l l c &.g.g.g.g.g.g.g.g.g.g.g.g.g.g.g.g.g.g.g.0.Z l l l l l l l I g.g.g.g.i.C z a O         ",
"          9 z c / g.g.g.g.` c l l l l l x A F G Q g.g.g.g.g.! U U Y Q :.g.g.g.g.g.g.} v l l l l l l M 0.g.g.g.g.Y l k -         ",
"        o p z N r.g.g.g.g.J l l l l l l l l l l m 2.g.g.g.g.G l l l x n K i.g.g.g.g.s.Z l l l l l l z R g.g.g.g.o.v z 5         ",
"        % h l G g.g.g.g.0.M l l l l l l l l l l c +.g.g.g.g.G l l l l l z Y g.g.g.g.g.H l l l l l l l D g.g.g.g.u.V z t .       ",
"        > l l T g.g.g.g.! c l l l l l l l l l l c +.g.g.g.g.G l l l l l l F g.g.g.g.g.H l l l l l l l m 5.g.g.g.g.F l d +       ",
"        4 z x / g.g.g.g.U l l l l l l l l l l l c +.g.g.g.g.G l l l l l l K g.g.g.g.s.Z l l l l l l l x ! g.g.g.g.Y l h %       ",
"        0 z b -.g.g.g.g.F l l l l l l l l l l l v +.g.g.g.g.F l l l l z C :.g.g.g.g./ v l l l l l l l l T g.g.g.g.W z l ;       ",
"        r z M 0.g.g.g.s.Z l l l l l l l l l l l v +.g.g.g.g.Y C Z A H E 0.g.g.g.g.+.V l l l l l l l l l L g.g.g.g./ c l >       ",
"      . y z N r.g.g.g.i.B l l l l l l l l l l l v +.g.g.g.g.g.s.s.g.g.g.g.g.g.g.s.L c l l l l l l l l l F g.g.g.g.o.v z 2       ",
"      X u z N i.g.g.g.r.N l l l l l l l l l l l v +.g.g.g.g.g.g.g.g.g.g.g.g.g.g.g.s.] Z l l l l l l l l D g.g.g.g.+.v z 2       ",
"      . u z N u.g.g.g.i.N l l l l l l l l l l l c o.g.g.g.g.2.` ` } +.5.g.g.g.g.g.g.g.0.C l l l l l l l F g.g.g.g.+.v z 2       ",
"      . r z M 0.g.g.g.s.C l l l l l l l l l l l c o.g.g.g.g.J c c c v m A W s.g.g.g.g.g.^ c l l l l l l J g.g.g.g.} c z <       ",
"        w z m 2.g.g.g.g.D l l l l l l l l l l l c +.g.g.g.g.G l l l l l l x L g.g.g.g.g.0.M l l l l l l Y g.g.g.g.Q x l :       ",
"        7 z c } g.g.g.g.K l l l l l l l l l l l v +.g.g.g.g.G l l l l l l l n 2.g.g.g.g.s.V l l l l l x W g.g.g.g.T z k *       ",
"        1 z z E g.g.g.g.W z l l l l l l l l l l v +.g.g.g.g.G l l l l l l l v +.g.g.g.g.s.B l l l l l v -.g.g.g.g.J l g #       ",
"        = k l K g.g.g.g.:.n l l l l l l l l l l c +.g.g.g.g.G l l l l l l l C u.g.g.g.g.0.M l l l l l C s.g.g.g.s.Z z i X       ",
"        @ f l C s.g.g.g.g.D l l l l l l l l l l v -.g.g.g.g.F l l l l l c Z +.g.g.g.g.g.] c l l l l l I g.g.g.g.:.n z 9         ",
"        . e z v -.g.g.g.g.E x l l l l l l m F F Y s.g.g.g.g.R D D F H Y / i.g.g.g.g.g.g.K l l l l l b &.g.g.g.g.E z l >         ",
"          1 z l Y g.g.g.g.r.V l l l l l l J g.g.g.g.g.g.g.g.g.g.g.g.g.g.g.g.g.g.g.g.g.^ v l l l l l G g.g.g.g.g.D l g #         ",
"          $ g l C i.g.g.g.g.R x l l l l l T g.g.g.g.g.g.g.g.g.g.g.g.g.g.g.g.g.g.g.s.R n l l l l l b o.g.g.g.g.-.b z q           ",
"            0 z x W g.g.g.g.i.A l l l l x ^ g.g.g.g.g.g.g.g.g.g.g.g.g.g.g.s.5.} Y Z x l l l l l l L g.g.g.g.g.L l k :           ",
"            - k l Z s.g.g.g.g.o.m l l l x C A A A A D ` g.g.R F I s.g.2.F B M c l l l l l l l l C r.g.g.g.g.:.m z u o           ",
"            . r z x W g.g.g.g.g.E c l l l l l l l l l R g.g.F l N u.g.+.v l l l l l l l l l l m o.g.g.g.g.g.K l l ,             ",
"              = j l N 5.g.g.g.g.g.Y x l l l l l l l z R g.g.F l V u.g.+.v l l l l l l l l l b Q g.g.g.g.g./ v z y o             ",
"                8 z l H g.g.g.g.g.g.I c l l l l l l l R g.g.F l V u.g.+.v l l l l l l l l n Q g.g.g.g.g.0.C l j -               ",
"                # a z x T g.g.g.g.g.g.R n l l l l l l R g.g.F l V s.g.*.v l l l l l l l V / g.g.g.g.g.s.H l z 7                 ",
"                  ; h l v Q g.g.g.g.g.g.} Z x l l l l Z K J M l b H J F x l l l l l c H 2.g.g.g.g.g.g.Y x z u +                 ",
"                    3 l l m / g.g.g.g.g.g.i.R N x l l l l l l l l l l l l l l l x Z Q g.g.g.g.g.g.g.T c z f %                   ",
"                    . 7 l l m Q g.g.g.g.g.g.g.0.R A v z l l l l l l l l l x m F Q s.g.g.g.g.g.g.g.T c z h ;                     ",
"                      X 9 l l v R g.g.g.g.g.g.g.g.s.-.R J A N M M N B S K W 2.g.g.g.g.g.g.g.g.u.K x z h >                       ",
"                        X 7 l l x H 5.g.g.g.g.g.g.g.g.g.g.g.i.r.0.r.s.g.g.g.g.g.g.g.g.g.g.g.o.A z z g :                         ",
"                          . 3 h z l N W s.g.g.g.g.g.g.g.g.g.g.g.g.g.g.g.g.g.g.g.g.g.g.g.r.Y n l z p *                           ",
"                              ; a z l x A ^ s.g.g.g.g.g.g.g.g.g.g.g.g.g.g.g.g.g.g.g.r.R V z z l q #                             ",
"                                # 8 j z l c Z T :.g.g.g.g.g.g.g.g.g.g.g.g.g.g.s.o.L N z l z s < .                               ",
"                                    = r k z l z b A P Q +.5.u.i.s.i.r.4.} E K C v l z z g 6 #                                   ",
"                                      . - 0 g z z l l x v M N V C B N m c z l z z l a 4 $                                       ",
"                                            $ 1 w f k z z z z z z z z z z l h p 9 : +                                           ",
"                                                . @ = 1 7 w r u u y r 0 4 > % o                                                 ",
"                                                            . . X .                                                             ",
"                                                                                                                                ",
"                                                                                                                                ",
"                                                                                                                                "
};
