/* XPM */
static char *result[] = {
/* columns rows colors chars-per-pixel */
"64 64 4 1 ",
"  c #796D00",
". c #D56C00",
"X c #D5C000",
"o c None",
/* pixels */
"oooooooooooooooooooooooooooooooooooooooooooooooooooooooooooooooo",
"oooooooooooooooooooooooooooooooooooooooooooooooooooooooooooooooo",
"oooooooooooooooooooooooooooooooooooooooooooooooooooooooooooooooo",
"oooooooooooooooooooooooooooooooooooooooooooooooooooooooooooooooo",
"oooooooooooooooooooooooooooooooooooooooooooooooooooooooooooooooo",
"oooooooooooooooooooooooooooooooooooooooooooooooooooooooooooooooo",
"oooooooooooooooooooooooooooooooooooooooooooooooooooooooooooooooo",
"oooooooooooooooooooooooooooooooooooooooooooooooooooooooooooooooo",
"oooooooooooooooooooooooooooooooooooooooooooooooooooooooooooooooo",
"oooooooooooooooooooooooooooooooooooooooooooooooooooooooooooooooo",
"oooooooooooooooooooooooooooooooooooooooooooooooooooooooooooooooo",
"oooooooooooooooooooooooooooooooooooooooooooooooooooooooooooooooo",
"oooooooooooooooooooooooooooooooooooooooooooooooooooooooooooooooo",
"oooooooooooooooooooooooooooooooooooooooooooooooooooooooooooooooo",
"ooooooooooooooooooooooooooooXXXXXXXXoooooooooooooooooooooooooooo",
"ooooooooooooooooooooooooooooXXXXXXXXoooooooooooooooooooooooooooo",
"ooooooooooooooooooooooXXXXXXXX    XXXXXXXXoooooooooooooooooooooo",
"ooooooooooooooooooooooXXXXXXXX    XXXXXXXXoooooooooooooooooooooo",
"ooooooooooooooooooooXXXX      XXXX      XXXXoooooooooooooooooooo",
"ooooooooooooooooooooXXXX      XXXX      XXXXoooooooooooooooooooo",
"ooooooooooooooooooXXXX    XXXXXXXXXXXX    XXXXoooooooooooooooooo",
"ooooooooooooooooooXXXX    XXXXXXXXXXXX    XXXXoooooooooooooooooo",
"ooooooooooooooooXXXX    XXXXXXooooXXXXXX    XXXXoooooooooooooooo",
"ooooooooooooooooXXXX    XXXXXXooooXXXXXX    XXXXoooooooooooooooo",
"ooooooooooooooXXXX  XXXXXXXXXXooooXXXXXXXXXX  XXXXoooooooooooooo",
"ooooooooooooooXXXX  XXXXXXXXXXooooXXXXXXXXXX  XXXXoooooooooooooo",
"ooooooooooooooXX  XXXXXXXXooooooooooooXXXXXXXX  XXoooooooooooooo",
"ooooooooooooooXX  XXXXXXXXooooooooooooXXXXXXXX  XXoooooooooooooo",
"ooooooooooooooXX  XX....XXXXXXooooXXXXXX....XX  XXoooooooooooooo",
"ooooooooooooooXX  XX....XXXXXXooooXXXXXX....XX  XXoooooooooooooo",
"ooooooooooooooXX  XX....XXXXXXooooXXXXXX....XX  XXoooooooooooooo",
"ooooooooooooooXX  XX....XXXXXXooooXXXXXX....XX  XXoooooooooooooo",
"ooooooooooooooXX  XXXX..XXXXXXooooXXXXXX..XXXX  XXoooooooooooooo",
"ooooooooooooooXX  XXXX..XXXXXXooooXXXXXX..XXXX  XXoooooooooooooo",
"ooooooooooooooXX  XXXX....XXXXooooXXXX....XXXX  XXoooooooooooooo",
"ooooooooooooooXX  XXXX....XXXXooooXXXX....XXXX  XXoooooooooooooo",
"ooooooooooooooXX  XXXXXX....XXooooXX....XXXXXX  XXoooooooooooooo",
"ooooooooooooooXX  XXXXXX....XXooooXX....XXXXXX  XXoooooooooooooo",
"ooooooooooooooXXXX  XXXXXX..XXooooXX..XXXXXX  XXXXoooooooooooooo",
"ooooooooooooooXXXX  XXXXXX..XXooooXX..XXXXXX  XXXXoooooooooooooo",
"ooooooooooooooooXXXX    XXXX..XXXX..XXXX    XXXXoooooooooooooooo",
"ooooooooooooooooXXXX    XXXX..XXXX..XXXX    XXXXoooooooooooooooo",
"ooooooooooooooooooXXXX    XXXX....XXXX    XXXXoooooooooooooooooo",
"ooooooooooooooooooXXXX    XXXX....XXXX    XXXXoooooooooooooooooo",
"ooooooooooooooooooooXXXX      XXXX      XXXXoooooooooooooooooooo",
"ooooooooooooooooooooXXXX      XXXX      XXXXoooooooooooooooooooo",
"ooooooooooooooooooooooXXXXXXXX    XXXXXXXXoooooooooooooooooooooo",
"ooooooooooooooooooooooXXXXXXXX    XXXXXXXXoooooooooooooooooooooo",
"ooooooooooooooooooooooooooooXXXXXXXXoooooooooooooooooooooooooooo",
"ooooooooooooooooooooooooooooXXXXXXXXoooooooooooooooooooooooooooo",
"oooooooooooooooooooooooooooooooooooooooooooooooooooooooooooooooo",
"oooooooooooooooooooooooooooooooooooooooooooooooooooooooooooooooo",
"oooooooooooooooooooooooooooooooooooooooooooooooooooooooooooooooo",
"oooooooooooooooooooooooooooooooooooooooooooooooooooooooooooooooo",
"oooooooooooooooooooooooooooooooooooooooooooooooooooooooooooooooo",
"oooooooooooooooooooooooooooooooooooooooooooooooooooooooooooooooo",
"oooooooooooooooooooooooooooooooooooooooooooooooooooooooooooooooo",
"oooooooooooooooooooooooooooooooooooooooooooooooooooooooooooooooo",
"oooooooooooooooooooooooooooooooooooooooooooooooooooooooooooooooo",
"oooooooooooooooooooooooooooooooooooooooooooooooooooooooooooooooo",
"oooooooooooooooooooooooooooooooooooooooooooooooooooooooooooooooo",
"oooooooooooooooooooooooooooooooooooooooooooooooooooooooooooooooo",
"oooooooooooooooooooooooooooooooooooooooooooooooooooooooooooooooo",
"oooooooooooooooooooooooooooooooooooooooooooooooooooooooooooooooo"
};
