/* XPM */
static char *aowul_e84my[] = {
/* columns rows colors chars-per-pixel */
"64 64 229 2 ",
"   c #5F7F1C",
".  c #5E6E2D",
"X  c #5B7A25",
"o  c #5D8818",
"O  c #5D9215",
"+  c #658D1C",
"@  c #629515",
"#  c #689515",
"$  c #669C14",
"%  c #6C9B16",
"&  c #64931B",
"*  c #6A931B",
"=  c #669B1A",
"-  c #6D9C1C",
";  c #739D1C",
":  c #7B9B1E",
">  c #76971B",
",  c #6FAF0E",
"<  c #73AC0E",
"1  c #79AD0F",
"2  c #7CB40E",
"3  c #7AB70E",
"4  c #6CA315",
"5  c #6EAA15",
"6  c #6DA41B",
"7  c #63A01A",
"8  c #73A415",
"9  c #7BA513",
"0  c #74AA14",
"q  c #7AAE15",
"w  c #74A41B",
"e  c #7AA41C",
"r  c #75AB1B",
"t  c #7CAC1C",
"y  c #76B112",
"u  c #7CB315",
"i  c #7CBA13",
"p  c #77B11A",
"a  c #7DB31B",
"s  c #7FBA1A",
"d  c #5D8820",
"f  c #688B27",
"g  c #728E27",
"h  c #659224",
"j  c #6D9322",
"k  c #6D9C23",
"l  c #6F9C2A",
"z  c #729523",
"x  c #739C23",
"c  c #799D24",
"v  c #76952A",
"b  c #7C9429",
"n  c #739D29",
"m  c #7A9D29",
"M  c #7F9326",
"N  c #6D8732",
"B  c #708238",
"V  c #6F9331",
"C  c #7B9C31",
"Z  c #789936",
"A  c #6FA122",
"S  c #74A323",
"D  c #7BA423",
"F  c #75AA23",
"G  c #7CAB23",
"H  c #76A42B",
"J  c #7CA42A",
"K  c #76AA2A",
"L  c #7DAB2A",
"P  c #7DB222",
"I  c #7DB823",
"U  c #7EB229",
"Y  c #77B123",
"T  c #7CA333",
"R  c #7DAC32",
"E  c #7BA83B",
"W  c #7CB235",
"Q  c #7E8841",
"!  c #85BB0D",
"~  c #8BBC0B",
"^  c #83B50D",
"/  c #82AD16",
"(  c #82A41C",
")  c #82AD1C",
"_  c #88AE1E",
"`  c #83B515",
"'  c #8AB616",
"]  c #84BC14",
"[  c #8BBD15",
"{  c #83B41C",
"}  c #8AB51C",
"|  c #85BB1B",
" . c #8BBC1C",
".. c #92BD1C",
"X. c #90BF14",
"o. c #849B28",
"O. c #869E3A",
"+. c #83A525",
"@. c #83AC24",
"#. c #89AD24",
"$. c #83A42C",
"%. c #8AA52B",
"&. c #83AC2B",
"*. c #89AC2B",
"=. c #84B423",
"-. c #8AB524",
";. c #85BB23",
":. c #8BBC23",
">. c #84B32B",
",. c #8BB42B",
"<. c #86BA2A",
"1. c #8BBC2B",
"2. c #92BD23",
"3. c #92B52B",
"4. c #93BD2C",
"5. c #99BD2E",
"6. c #92B426",
"7. c #84A433",
"8. c #84AC32",
"9. c #8BAC33",
"0. c #8AA73B",
"q. c #8DAE3C",
"w. c #85A33C",
"e. c #90A639",
"r. c #83B331",
"t. c #8BB532",
"y. c #8DBB33",
"u. c #8DB53C",
"i. c #8EBC3B",
"p. c #87BB37",
"a. c #92B434",
"s. c #92BC33",
"d. c #92B53A",
"f. c #9AB33B",
"g. c #93BB3A",
"h. c #98BB39",
"j. c #A1BA3A",
"k. c #8CC30C",
"l. c #8BC306",
"z. c #92C40C",
"x. c #95C90C",
"c. c #9BCC0B",
"v. c #97CA06",
"b. c #9BD00A",
"n. c #85C114",
"m. c #8CC314",
"M. c #85C11B",
"N. c #8CC21C",
"B. c #8CC817",
"V. c #92C415",
"C. c #93CA13",
"Z. c #9ACB14",
"A. c #92C41C",
"S. c #99C51C",
"D. c #95CA1D",
"F. c #9BCB1C",
"G. c #9AC712",
"H. c #98D019",
"J. c #A0CD1D",
"K. c #A2D11A",
"L. c #87C223",
"P. c #8DC223",
"I. c #8DC22B",
"U. c #8AC428",
"Y. c #93C423",
"T. c #99C522",
"R. c #95CA24",
"E. c #9BCB24",
"W. c #93C42B",
"Q. c #9AC62C",
"!. c #95C92B",
"~. c #9BCB2C",
"^. c #9ED023",
"/. c #9DD12D",
"(. c #8DC233",
"). c #8EC23B",
"_. c #94C433",
"`. c #9AC533",
"'. c #96CA33",
"]. c #9BCB33",
"[. c #94C43B",
"{. c #9AC53A",
"}. c #95CA3B",
"|. c #9BCA3B",
" X c #9CD134",
".X c #9DD038",
"XX c #A1CD24",
"oX c #A2CE2C",
"OX c #A8CF2E",
"+X c #A4D224",
"@X c #A3D32C",
"#X c #A6D926",
"$X c #A0C535",
"%X c #A1CE33",
"&X c #A1CE3D",
"*X c #A2CC3C",
"=X c #A5D132",
"-X c #A3D235",
";X c #A5D23D",
":X c #A3D13C",
">X c #A9D43B",
",X c #8BAE41",
"<X c #97AA45",
"1X c #8BB940",
"2X c #94B743",
"3X c #98BB46",
"4X c #9AB554",
"5X c #88A855",
"6X c #A5BC4F",
"7X c #94C344",
"8X c #9AC642",
"9X c #9CCB43",
"0X c #9ECD4A",
"qX c #98C24E",
"wX c #9FCC53",
"eX c #A0C444",
"rX c #A2CA44",
"tX c #A3CA4A",
"yX c #A5C94D",
"uX c #A2D046",
"iX c #A9D244",
"pX c #A9D349",
"aX c #ABD44C",
"sX c #A3D149",
"dX c #A7CA56",
"fX c #AED359",
"gX c #A7D155",
"hX c #A7CF60",
"jX c #ACD361",
/* pixels */
"C.b.v.C.F.x.S.Z.Z.D.T.XXE.+XXXJ.F.E.oX+XK.-X-X+X+XE.+X+X=XXX^.].:X=X-X].].].].S.~.%XR.C.A.N.m.!.'.F.Z.n.A.R.D.E.V.Y.Z.x.x.Z.Z.F.",
"Z.c.x.x.b.c.x.z.Z.+XF.^.^.oXE.E.E.E.+X/.F.].*X~.oX~.@X*XpX;XE.E.+X>X-X~.Q.D.!.~.].~.D.D..X~.~.Y.Y.D.V.A.R.R.F.A.V.z.k.l.v.v.c.F.",
"Z.+X+XK.K.c.E.XX+X#X-X@X@X~.].^.E.%X+X@X:X%X*X*X;XpXpX:X;XiX+X:X].@XoXF.~.:X].~.'.D.R.[.'.Y.!.'.S.N.A.Y.~.m.Y.R.Y.V.z.~ l.v.l.l.",
"F.J.E.S.^.F.=X>X#X&X~.S.^.@X-X@X].&X/.=X;X%X~.*X&X|.:XoXE.E.%X&X%XF.F.%XY.2.W.C.'.!.|.7X{ N.'.'.W.}.N._.R.]  .P.A.N.A.[ ] ] m.! ",
"E.+X-XoXZ.~.pX>X~.|.Z.E.~.E.F.|.'.F.!.].|.&XpXpXpX=XpXpX;X~.].~.F.E.V.x.D._.'.W.!.].wXwX!.Y.R.W.E./.].`.W.m.P.[ [ k.:.W.Q.!.A.k.",
"x.J.~.D.D.;XtXQ.E.~.F.^.~.].E.~.].~.~.|.E.%X*X ...`.5.2.!.~.].uXE.F.E.Z.`.0X&X;XE.].tX|.+XE.C.z.N.P.I.!.].A.] [ !  .L.!  ._.u n.",
"S.C.S.D.|.rX'.S.R._.R.E.!.'.'.R.E.Y.2.!.E.Q.8XtXA.Q.E.A.Y.W.]._.W.oXS...|.9X].!.A.].`.Y.'.~.E.D. .` :. .2 C.m.V.Z.F.Y.|.k.W.R.z.",
"E./.!._.rXW.~.!.Y.!.'.!.1.P.|.].!.[ ;.E.`.`.gXjX9X|.m.V.F.~.S.W.~.].Y.].8X[.E.A.6.Q.8X[.(.y.!.|.Y.m.m.[ m.m.V.n.k.] {.aX[ 1.W. .",
"Y.Y.!.{.|._.[ 1.I.P.I.n.].N.U.!.R. X/.~.|.Y.:XfXfXuX].A.D.!.].|.~.].Z.m.W._.Y.Y.*X`.W.!.E.~.!.P.m.m.m.B.S.M.n.C.] ] Y.rXtX!.z.[ ",
"[ [ A.T.|.A.C.[ Y.P.[.D.D.] ] ] N.(.'.D.!.'.m.|.sXY.].!.E.~.:.I.].].!.|.!.!.].9XgX{.P.V.C.A.!.!.!.~.E.Y.m.] [ n.S.E.l.~.*Xl.x.! ",
"n.] W.:.N.D.F.E.~.N.!.I.] B.A.M.] ] M.!.}.|.P.|.Y.:.[._.!.%X@X-X/.|.'.E.].'.*XrXQ.~._.~.D.M.R.R.N.!.P.M. .N...A.A.P.C.oXZ.k.C.x.",
"m.m.W.W.N.] '.!.U.I.R.N.}.I.{ ;.M.m.A.U.U.1.|.W.~.Y.{.0XA.-X].~.].W.!.'.~.oX`.|.P.N.D.<.P.[  .E. .:.P.;.| 1.Q.P.m.C.W.2.! { m.l.",
"n.] ;.m.P.(.P.| L.U.Y.R.!.I.'.R.Y.[.1.'.N.|._.{._.[.].-XA.!.%X~.E.S...!.~.%X].:.E.!.N.N.'.~.~.:.W.W.:.P.P.=.t =.m.!  .Q. .P.k.~ ",
"I.n.P.[ P.}.I.;.!.!.'.I.1.:.E.Y.:.:.:.Y.N.N.].}.Y.*X].Y.~..X!.Y.Z.E.2.D.A.S.~.~. XN.R.D.Y.S.] ] S.] :.A.| 1.{ { N.m.[ Y.C.C.k.k.",
"P.D.D.R.H.D.m.] | Y.P.W.[.~.[ ` <.<.N.m.{._.R. .!.R.E.~.E.D.F.^...[ F.A.W.~.~.E.@XD. .I.1.W.1.A.m. .:.!.] Y. XY.V.[ m.V.[ ~ ] =.",
"C.B.C.C.x.B.m. .P.:.| 1.M.A.Q.N. .{.@.=.2.Y.N.W.F.D.D.R.R.!.A.Y.P.D. .1.9XR.A.I.V.W.I.R.'.A.E.D.| !.E.{.I...].C.V.z.[ ` ..S.| A.",
"P.N.| N.[ P Y.!.Y.P.1.W.N. . .#.-.8XW.E.Y.^ P.D.Y.P.D.m.!.Y.;.y.P..XY.!.!.I.4./.C.~. X:.-.V.Y.N.'.R.J.].!.E.z.V...~ [ T.S.G.C.m.",
"W.!.P.:.[ N.Y. .{ 2.1.W.W.1.'.i.`.;XY.n.R.{ ;.N.] I.P.I.I.P.E.|.~.!.~.P.R.[.'.| P.=.[.~.D.F.E.|.~.A.N.2.|.V.A.A.P.[  .[ V.Z.Z.C.",
";.u i | { !  .;.] V.R. .i.7XP.I.W.E.W.;.I.P.D.Y.[ 1.I.W.W.!.;.}.Y.A.W.<.=.<.;.a U.[.(.N.D.V.~.].R.Q.;.1.Y.Y.:.:.} ) :.` A.]  .V.",
"I 4 0 s ] ` N.| ] ` W.'.W.[.P  . .Y.Y.;. .W.(.>.y.|.R.!._.}.}.(.].!.{._.:.P.W.W.>.!.!.1.P.` ~.].Y.E.~.].D.E.N. .x.C.Y.{ V.[ A.m.",
"[ n.] ] u r ]  .@.4.4.<.P.W.}.P.] E.].].N.U.'.'.U.-.' A.'.R.E.~.].!.W.!.E.N.<.Y.D.] N.A.;.:.C.Y.Y.Y.Y.N.[ V. .N.2 ` } X.[ ] ! [ ",
"z.Y.N.M.1.| t G  .n.P.P.!. .!.P.Y.E.{ ` 1.1.] =. . .s.<.=.P | Y.!.=.(.Y.!.N.<. .;.G P } [ N.C.! ' <.P.C.C.n.{  .` u ] N.A.;.| A.",
"u u P.=.P W.7X}.W.n.N.B.D.E.R.N.` ` U =.;.R.~.{.~.Y.(.W.!._.L.;.1.y.!.N.W.:.Y.2.:.W.y.Y.F.| P.:.].].C.[ C.] [ N.` { ] `  . . .| ",
"s q ` N.P.A.N.N.<. .A.n.V.C.Y.Y.!.P.E.P.S.Z.V.m.:.W. .N./.|.<.<.N.1.G q | N.r.s.Y.W.].1.A.~.~.F.Q.A.[ :.C.V.V.] >.| A.] ]  .} G ",
"{ :.1.:. .:.B.{ =.| u ] { ] { <.P.}  .A.A.C. .A.;.;.;.N.M.>.1. .Y.h.g.>.A.A.].~...Y.X.]._.'.E.n.;.4.| Y.P.[ V. . .| :.y. . .Y.N.",
"1.N.| <.N.} F =.Y.I.` { I.P.:.D.F.Y.S.Y.!.A.A.I.!.D.!.~.I.,.N.} Y.`.!.!.A.Z.:.E.T.2.4.,.4.].!.1.1...} ..~.Y.] ' k.N.E.B. .M.;.] ",
"E.D.E.C.[ m.| | N.R.L u U.!.:.< 0 } ` N.A.`  .R.:.q ` A.P.P.C.T. . .N.P.:.:.:.T.T.2.Z.Y.Y.Y.A. .Y. .R.] } Y.:.u ] a ] n.] n.` p ",
"n.3 :.{ y m.N.1.M.;.L.W.Y.Y.1.H S _.2.Y.M.r A r <.L P ] <.1.=.Y.Y.:.:.;.<.1.2.2.| 2.m.M...Y.A.<._.-.` ;.a u  .] [ :.{ | M.B.A.P.",
"B.A.:.B.N.-.A. .;.G  .P.A.N.!.!.D.-X| { r R R _.B.R.Q.N.W I.N.!.E. .P.W.' E.:._.Y.Y.' ) y.@.:.Y.Y.Y.,.Y.D.] ;.A.n.0 | <.M.C.] i ",
"{ =.] k.m.| :.M.m.] W.] | | 1.!.m.:.I.W.{ y.Y. .P 1.=.W 1.1.;.;.| ` 1 ;.t.:.P.Y.Y.L -.:.s._.W. .W.~.E.W.:.:.1.:.1.x u <.=.2 n.0 ",
"]  .q y ] ] !  .] | P.N.<.a a &.t.a D.P.;.1.|  .I.<.U y.B.I.P.<.;.;.F -.!.M.2.-. .{.y.>.~._.:.-.Y.F.V.A. .@.@. .Y.A.;.n.| G w u ",
"m.C.P.;.=.s.a  . .u 5 { ] <._. .t.=.q { ;.E.P.P.*X!.D.1.s  .A. .:.N.).2.Y.{ | | y.s.h.<.Y.1.r -.A.`  .[ w =. .p u  .Y.n.W.u.H :.",
"{ {  .s.<.a >.' t r 5 r 0 s F >.p ' G s  .=.;.:.dX;Xm.'._.P G P :.D.~. .s.Y.k.D.y.@.3Xi.y.u.L <.] q ] ` G e t >.>. .A.t.9X|.Y.2.",
"] a w [.9X_.P.,.k r 8 S G k K 1.K ;.| ] s =.I i.;XD.D.@XE.U.>.s.E.C.[ ` W.N.N.,.h.g.2.h.s.,.<.1.t t a >.=.G -.1.A.S.=.s.|.:.` i.",
" .G u.}.hXyXL.'.&.;.t.P.A.-.<.=.t } < 0 P <._.>X].L.t R.R.-XsX|.D.] [ ;.>.{ ;.L yXfX=.y.&.=.e :.-.t &.>.| 2.W.!.' :.s.{._.a 0 L ",
"G I.I.P qX8X7X'.N.A. .|  .' @.,.{ { S V 1.(.9XOX+XI.I.Y.R.8X-X!.-.1.-.:.:.G >.P {.yXeX2X' 2.y.G e t ;.) N.:.{ } 2.2.{.,.=.P ;.1.",
" .!.p.U 4 i.7X;.1.a } ;.=.*.| =.I.I.<.y.!.{.*XoX~.#X#X@XQ.].C.P.:.!.| 4.>.s.`._.:.s.rX2.m.2.s.-.@.n e ] u ]  .G q N.g.a.*.3.<.n.",
"=.u L.(.r qX;.u <.G S :.y.*.!.B.1.=.:.4._.Q.W.D.2.#X .E.`.W.n.Y.] < a | :.$XN.4.2.3X8.| =.;.M.{ ' =.&.t q a 0 =.L { :.-.:.;.,.} ",
"I.6 a I.).[.<.L y.<.<.t =.h.} { I.q.,.-.g.y.} A.=.e d t ^._.N.;.F n F r | Y.P.=.y.,.=.@.-.t ` t ; ,.-.x D [ -.G ,.q. .| s a } t ",
"w y.'.L.;.P | <.).=.W.y.$.Y.V.Y.y.Y.N.A.1.i.{  .,.t.t.S P.N.S =. .<.=.=.t :.M.` <.&.-...` ` -.] } e u :.' :.=.r @.r.]  .{ i w 6 ",
"R P.=.) F <.| <.1Xg.1.D.`.A.A.N.[.i.1.=.>.L r <.s.1.2.<.;. .<.;.=.| d.} 9.- >.r 6 1. .9 e ' ` q q e e 8 0 a ;.2.| i ,  . .{ ] ] ",
"L.N.{ { U P x C g.s.,.2 L.!.=.1.J 1X=.9.&.E >.D.P.2. .I.G a >.| y.&.{.A.2.7.F + h { [ x e =.{ / ] q #.{ r S  .<.M.t F { q | , 0 ",
"r r A.;.<.,.,.@.} @.*.>.g._._.[.=.`.y.1.4.eX!.~ ] :.1._ y.>.>.a | y.@.t @.4.;.n J t | ' 8 6 P e 4 | / 8 { :.G t u u S p { } 4 r ",
",.>.` A._.,.7.&.{ 1.[.| N.<.| y.=.D.R.D.:.<.Y.@.S { $.@.:.{ { G L ;.y.,X8.` m.s.I.>.} $.; S @.r 8 % w j k @.H = e a { 6 a F 0 w ",
"i.:.&.3.} 2.3XQ.:.4.1.&.t =.n.t q.1. .Y.;.`.2.-.-.s #.@.N.t.a t =.=.>.[.y.=.N.P.N.] <.E 8.} [ +.% * t ;.F D } S t r y t q w 0 7 ",
"P.=.:. .2.:.:.N.;.t r -.1.<.r 1.9X<.- <.'.`.T...=.{ m.#.) <.=.G { >.:.@.:.Y.=.u <. .:.2X|.u $ 2.+.+.[ ] n.Y.} ' } -.4 t % A 6 u ",
"Y.P.2.] =.a.@.Y = e t I P. .N.| :.Y.,.4.I.D.Y.Y.T.=.w ] 0 S J <.S { =.L >.t &.t =...'.y.@.M.@.P 2.t.0 { t ) u t @.=.{ q D P.P F ",
";.:.A.' ..-.&.P <.,.G a D G ] U G 2.3.d.W. .#.#.D.8.>.t ` x N.y.W.S &.F ;.s =.n w /  .2.:.) { :. .2.;.) { ; S ] @.c @.| a t > 8 ",
"4 a ` ) @.-.<.a { G L P.L E 1.1.@.G ,.&.=.1.,.9. .{ 1.n P D G <.W.V + x G ] p ;.s 8 # } ` n.{ -.| &.t.) -.e t ] }  .t e <.S ; 0 ",
"t [ 8 G e { J - x t >.I 0 n >.-.<.<.8.t.x p  .2.-.a ) 2.'.t.h.@.@.:.+.@.{ { ] G =.@ m =.@.+.@.-.>.t.+.` e &.S { { | ;.b $.P q w ",
"w 0 u a ,.G J r.$.@.m.<.G ) M.:.n.V.$X$X*.s ' ;.!.&.&.W.=.&.5.m G I.3.-.2.:.( 0.-.#.-.e +.*.@.w @. .o.c G $.$.{ ` D :.#.8 u 4 o ",
"0 = S | t D 1.<.3.<.8 t >.u q F ;.' =.=.S A y P C f.a.N.=.y.s.!.` <.,.+.@.e +.-.8 J +.%.+.=.-.] } t ) o.e 2.2.; =.=.] y i ] p - ",
"y 6 h [ a G G F @.) t U J +.t =.=.e &.e S &.a @.e Y.s.e t ,.<. .J n S a M.R @.t r.L D } N.=.{ >.G 0 -.{ =.0 ) #.a w u 8 8 ` t G ",
"F u x P D { 7 >.} { { { u e r a a u.:.D =.S 8.D.0 S -.@.j @.; ; t c S | | =.} =.<.S G y.;.#.8.W.` t [ 0 % v x % o f * w F ; w G ",
"x 0 A.n $.;.r 0 0 F 6 a ` 6 6 u m.1.i | >.G G q k l A e &.x x + ; $.) | @.D e [ =.&.| ) :.S -.-.e r r $ % -.S S D t n * | = ) r ",
"<.q ` { { 5 1.} t S P  .P =.) ;. .'  .1.9.{ $ 8 1.T r.@.@.E G | #.9.{ -.9.>.@.q <.@.{ 9 ) =.a -.+.6 $ @ 8 * X u 9 t { k $ 8 ) : ",
"V.G ;  .a t 3.e | =.2.=.a e | ' 7 ) j Y.,.F R  .3.*.$.| G y.+.-.=.,.t u T.2.s L c G j - +.( { } e 8 ; % O g B L ; & > 1.4 e S z ",
"t &.;.` y ) e q } -.' ` 0 ; 9 e J 8.$.] 1.y.j H r.@. .G =.&.a L s.*.D > #.4.<.-.J t g $.+.e ] ] t e a - j t 2.b h D v D G t G >.",
"q <.M.p u % J S ; +.0 * % D j j 0 N ,.u G =.t.g.-.9.] t F R + * L t.i.$.,./ 2.*.1...*.3.` { r % @ [ / + * % @ z X u <.L G 0 w =.",
"2 r 6 = # ; (.N > ) $ k F $ X A F $.7.G }  .Y.} f.%.; e c S D C C +.<.y.s.m { #.@._ h.t.i { S % w u D z @.S t @.D e P 1.Y.t 6 q ",
"w = 7 S x d.y.v +.=.& ] 8 r =.1.r.2.a.=.u &.@.[ @.T $.w.x ; -.@.a.6.:.%.o.%.C D o.e._.L w 6 8 t a k h 5 S S ; z *.9.D n # J 8 % ",
"a t 8 } *.g.>.< e 8 8 [ q P >.>.t._ : { W.:.<X2X% 8.,.*.>.8.: ' { >.j #.M c ( m -.f.&.<.<.r 8 w & t k O F f . Z &.2.O.5X+ S D r ",
"4 F t P.8.+.e =.t # y y ' A.2.) { ; ; @.J :.4X4X$.0.{ ) t $.` 4 G | t =.+.e - G L { s x t 9 6 w 0 y $ k =.9.Q g ,.>.q.4Xq.T ` 9 ",
"L } } =.`.+.&.D.a ; $ 8 t t ] >.x $.9.f m D e q.tXf.{ i u 1.u t ,.0 w  .D t % 8.T =.0 x   8 t S w * z @.) N.>.J q.;.j.<X6XS 0 c "
};
