/* XPM */
static char *af5ek_lbb0l[] = {
/* columns rows colors chars-per-pixel */
"64 64 144 2 ",
"   c #020001",
".  c #010003",
"X  c #020002",
"o  c #030102",
"O  c #020003",
"+  c #030003",
"@  c #030103",
"#  c #040003",
"$  c #020004",
"%  c #030004",
"&  c #020104",
"*  c #030104",
"=  c #030105",
"-  c #030106",
";  c #040004",
":  c #050004",
">  c #040104",
",  c #050104",
"<  c #050005",
"1  c #040105",
"2  c #050105",
"3  c #060004",
"4  c #060104",
"5  c #060005",
"6  c #060105",
"7  c #040204",
"8  c #050304",
"9  c #040205",
"0  c #050205",
"q  c #050305",
"w  c #060205",
"e  c #050006",
"r  c #040106",
"t  c #050106",
"y  c #050107",
"u  c #060106",
"i  c #060107",
"p  c #050206",
"a  c #050306",
"s  c #060206",
"d  c #070206",
"f  c #060306",
"g  c #060207",
"h  c #060307",
"j  c #070307",
"k  c #050407",
"l  c #060406",
"z  c #070406",
"x  c #070506",
"c  c #060407",
"v  c #070407",
"b  c #060507",
"n  c #070507",
"m  c #070607",
"M  c #080307",
"N  c #090307",
"B  c #080506",
"V  c #080407",
"C  c #090407",
"Z  c #080507",
"A  c #080606",
"S  c #080607",
"D  c #070208",
"F  c #070308",
"G  c #060408",
"H  c #070408",
"J  c #060508",
"K  c #070508",
"L  c #070409",
"P  c #070509",
"I  c #070608",
"U  c #070609",
"Y  c #07050A",
"T  c #080308",
"R  c #090308",
"E  c #080309",
"W  c #090309",
"Q  c #080408",
"!  c #090408",
"~  c #080508",
"^  c #090508",
"/  c #080409",
"(  c #090409",
")  c #080509",
"_  c #090509",
"`  c #0A0408",
"'  c #080608",
"]  c #090608",
"[  c #080708",
"{  c #090708",
"}  c #080609",
"|  c #090609",
" . c #080709",
".. c #090709",
"X. c #0A0708",
"o. c #0A0609",
"O. c #0A0709",
"+. c #08040A",
"@. c #09040A",
"#. c #08050A",
"$. c #09050A",
"%. c #09050B",
"&. c #08060A",
"*. c #09060A",
"=. c #08070A",
"-. c #09070A",
";. c #08060B",
":. c #08070B",
">. c #09070B",
",. c #0A060A",
"<. c #0A070A",
"1. c #0A070B",
"2. c #09070C",
"3. c #0A070C",
"4. c #0A060D",
"5. c #090809",
"6. c #0A0809",
"7. c #09080A",
"8. c #0A080A",
"9. c #0B080A",
"0. c #0B090A",
"q. c #0A080B",
"w. c #0B080B",
"e. c #0B090B",
"r. c #0B0A0B",
"t. c #0C090B",
"y. c #0D0A0A",
"u. c #0C0A0B",
"i. c #0D0A0B",
"p. c #0E0B0B",
"a. c #09080C",
"s. c #0A080C",
"d. c #0A090C",
"f. c #0B090C",
"g. c #0B090D",
"h. c #0A090E",
"j. c #0D080C",
"k. c #0C090C",
"l. c #0C090D",
"z. c #0D0B0D",
"x. c #0C090E",
"c. c #0D090E",
"v. c #0D0B0F",
"b. c #0E0B0E",
/* pixels */
"M T T @.@.T T M M T T v L @.M M @.C @.T h L v v v L L @.M M h L M M @.C C C T T T T C C @.L v @.M M C C @.T @.C T T @.L T h @.T ",
"T T F @.@.T T L @.M M C @.@.F v v v T @.v v @.L v L v @.C @.@.@.v v h 3.@.v L @.C C @.C @.@.L C v @.M @.@.M v v L M M v L j.@.@.",
"T @.T T T M M M M M C C @.@.h L v v v v v @.@.L v v L v v L @.v C @.L @.L v @.@.L L v v @.@.@.@.C @.C @.T @.v C C C C v L 3.@.@.",
"M M M T T F L v h v L v C L C T L @.L v v @.@.v v v v v v v v @.v L L v L @.@.@.L L v L L L @.L L L L v C @.T @.@.@.@.@.v v h C ",
"M T M v T T @.@.@.v v C @.v v L v v v L L L L @.v v v v L L C v v v v L L @.@.L L L L L v L L C L v C @.v L @.@.C C C @.@.v v C ",
"M C @.L T C M C @.@.@.@.v v C C 3.L v v @.L L v v L v L L L L L v v v v v C v L L L L v L v v @.L L @.L L q.q.v L @.C @.@.v v v ",
"T L @.@.F @.M @.@.@.L v v v L C @.@.v v v L v L v v v L L v v v v v L v L L v v L v C @.@.v v L L L 3.@.@.v L L @.C @.L L @.C C ",
"v L @.M L v q.@.v v @.L L L L L v v v L L @.v v v v v v v v L C v L L v v v L v v L L v @.L L v v L @.L L L L L @.@.@.l.@.L @.@.",
"@.L v @.@.v @.L v v C L v L q.L v v v v L L v v L L L v @.j.v L L L L L v v L L L v v L v L L @.@.L L L v L L L v @.@.@.@.@.@.@.",
"@.@.v @.@.L v L L L v v L L v L v v v L v v v v v v v v v L L v v L v L L v L @.v L @.v v L v L @.L @.L L v L L v v L L L L L v ",
"L L L L v v v L L L L v L L v v v v v v v v v L L v v v v L L v v v v v L L L L L @.L v L L L v L L v L @.L L L L @.@.L L @.L L ",
"@.L L L L L L v L v L v L L v v v v v L L L v L L v v v v v L @.v @.L v L L L @.L v v L v L L L L @.L v v L @.L L @.@.L L L L L ",
"L L L L L L L v L @.L v v L v L v v L L v v L L v L v v v v v L v q.@.v L L L v L L L L v L L L v @.L L v L @.L L L L @.@.@.L L ",
"@.@.@.L L L L v L @.L L L L v L L L L L @.L v v v v L L L L v v L v v L L L L L L L L L L L v L @.v L @.L L L v L L L L L @.@.L ",
"@.@.L L v @.@.L @.L L @.L L v v v L v L L @.L L L L v v L L L L v L L L L L L L L L L v L L L L L L L L v L L L L L @.L L v v @.",
"@.L @.@.L @.@.L L L L L L v v v L L L L v L L L v @.L v L @.v L v v v L L L j.@.v L L L v v L L L L L L @.L L L L L L L L L L @.",
"@.L @.@.@.L L L v v @.L v v L L @.L L L L @.@.v L L v @.@.L L v L L L v L v j.@.L L v L L L L L L L v L @.v v L L L L @.L L L @.",
"L @.@.L L L L L L L L L L L L L L @.L L L L v L v @.@.@.L v L v L L L L v v v v L L L L L L L L v L L L L L L v L L L @.v L L L ",
"@.L l.q.@.@.C C L v v v L L v L L @.@.L v v @.@.v @.q.L L L v L L L L L L L @.@.@.L L L v L L v L L L L L @.@.L L @.L L @.L @.l.",
"@.L q.q.@.@.L L L L L v L L L L L L v L L L L L L L @.q.@.L L L L L v v v @.L v @.L L @.L @.L L @.L L L L L v L L L L L @.L @.q.",
"v L v L q.@.L q.L L L L v v v v L v L v L L L L v @.L v @.@.L L L L v v L v L @.L L L L L L L q.q.L L @.L L L L L L @.@.L q.@.q.",
"v L v @.q.@.L L L L L @.L v @.@.L L q.L L L @.L v L @.q.@.L L L L L L L L L L L L L L @.L L L v L L L @.L L v L L C C v L L L l.",
"L L L L v @.L @.@.L L L L v q.q.@.q.v L v v L @.@.v @.q.@.L L L L v v v v L L L L @.L @.L L @.L L L L L @.L v L L v q.j.v @.L L ",
"@.v L L v v L L L @.@.@.@.@.L L q.@.L L L L L v v L L L L @.@.v L L L L L L L L l.@.L @.@.v q.L L L L L L L L @.q.L @.q.L @.@.@.",
"L L L v v v L L L L @.q.q.@.C L L L @.L L L v v v L L L L @.@.L @.@.q.L L L L L L v L L L L L @.L v v L @.v @.@.@.@.@.L @.@.L L ",
"@.L v L L v @.@.L L L @.@.L @.@.L L v L L @.L L v v L v L @.@.L L v v v @.@.v L v v L L L @.@.@.@.@.@.v L q.q.@.@.@.@.@.@.@.y.@.",
"L L L L v @.L v L L @.v @.@.L L L L L L L L @.@.L v v v v v L L v L L L L L v v L L L v L L L L L @.q.v @.q.@.@.L @.q.L @.@.q.C ",
"L L L L L L @.L @.L L q.q.q.@.@.@.L @.L L @.v L L L v v L L L q.v L L L v v L L L L L L v L L q.@.@.q.L @.@.@.@.@.y.q.C q.q.@.C ",
"@.L L L @.q.v L L L L @.@.@.@.@.@.L @.C v v v L L L v v v L L L L v v C v v L L @.@.@.C @.@.L @.@.v @.q.@.@.@.@.q.l.L q.q.q.@.q.",
"@.L L L @.L L L L L @.L @.@.@.@.@.@.L L L v @.@.v L L L L L v v v L v v L L L L L L @.@.L L @.v L L L @.@.@.@.@.q.q.@.q.L L @.@.",
"L v v v l.@.L L L v L L v L L L L @.L @.@.@.@.@.L L v v L v L L L L L L L L L L L L v v L L L L L L L q.@.@.@.@.@.L @.@.@.@.q.@.",
"L @.C v v L v L L L L v v v L @.v q.@.l.@.q.q.@.@.L L @.@.v v L L v v L L L L @.v L v v L L L L @.@.@.v @.@.q.L q.@.@.C @.q.q.L ",
"@.L L L L L L L L L L v L L L L L L @.@.@.@.@.L L L L L L v v L v L L v v L v v v L L L L L L L L @.L q.q.L q.@.@.@.@.@.@.@.@.@.",
"L L L L v L @.v L L L @.@.L L L L @.@.q.@.L L L @.C C L v L L L L L C L L L L v L L L v L L @.@.L v L @.C v @.@.@.@.@.@.L @.@.@.",
"L L L L v @.L v v v L v C v v L L L L @.@.v @.v v C C C v v v L v v C v L v v L L @.L L @.L L @.C v @.@.v @.@.@.@.@.@.q.L C C q.",
"L @.L @.v v L @.v L L @.C v @.L L v v L @.C @.@.@.C C L @.@.v L L v @.L v L L L @.L L @.L L L v L v @.q.C @.L @.q.@.C C q.q.v @.",
"L L @.@.L v L L v v L q.@.@.@.L v v v v @.@.C C @.C v L @.q.@.@.@.@.C @.L v v v v v v v L L @.@.@.@.q.q.q.q.L @.@.@.@.@.@.@.@.L ",
"@.C @.L L @.L L L L @.L @.@.L @.v v @.v h v L L @.C v L @.@.@.@.C @.C C q.@.v q.j.v L @.@.@.@.C C L @.@.@.q.@.@.L L @.C C @.@.@.",
"@.@.L L @.@.@.@.L L L @.v @.@.@.h * * @ @ @ @ * v @.@.@.@.C L @.@.@.@.@.C @.@.@.@.L L @.@.@.L C C L @.@.L L C @.L L L L @.@.@.@.",
"@.C C C C @.@.@.@.@.v v @.@.v h @ @ @ @ @ @ @ @ v v v v v C @.v C C C @.@.@.@.@.@.C C v @.v @.@.C v q.p.v L @.L @.@.L L @.@.@.@.",
"@.@.@.L L @.@.@.C C v @.v v * @ @ @ @ @ @ @ @ @ @ @ @ @ @ * L C X.v C C C @.q.@.@.L q.C v L L v @.@.C C @.@.@.@.q.@.L L @.C @.@.",
"@.@.@.@.C L @.@.L @.@.v @ @ * @ @ @ @ @ @ @ @ @ @ @ @ @ @ * v @.q.L @.q.@.@.@.L @.C q.@.@.v q.q.@.L @.@.@.C C C v @.@.L @.C C L ",
"C v L L @.L h v v v h @ @ @ @ @ @ @ @ @ @ @ @ @ @ @ @ @ @ h @.@.L @.C q.C v v @.@.C @.@.C v L l.@.q.C L L @.@.@.@.L @.L L C C C ",
"L L @.L v h @ * @ @ @ @ @ @ @ @ @ @ @ @ @ @ @ @ @ @ @ @ @ h L L L @.C v v L L @.@.@.@.@.@.v v v v q.v L L L v C @.@.@.@.@.C v @.",
"v L v h @ * * @ @ @ * @ * @ @ @ @ @ @ @ @ @ @ @ @ @ @ @ @ h v @.L v C @.L L @.L @.q.@.C @.@.@.C C C @.@.@.@.L L L @.C C q.@.L L ",
"v v @ @ * @ * * @ * * * @ * @ @ @ @ @ @ @ @ @ @ @ @ @ @ @ @ @ h v v C C @.L C C @.@.@.L @.@.@.C C @.@.C v L @.L L @.C @.v @.@.@.",
"L h # * * * * * @ @ * h * * * * * * @ @ @ @ @ @ @ @ @ @ @ @ @ @ * v C L v L C C C C L C @.L @.C C @.L C @.@.L v L L C C v @.@.L ",
"h * * * * * * * @ @ * h * * * * @ * * @ * * @ @ @ @ @ @ @ @ @ @ @ v v L v C C L L v v L L L @.@.@.v @.L L L L v v L v v L v L L ",
"# * # @ @ @ @ @ @ @ * * * * @ * @ @ @ * * * * @ @ @ @ @ @ @ @ * @ v L L L v v v L v v L C C v v v v L L L @.@.v v L L L L L L v ",
"# h # # # # @ @ h # h h * h @ @ * @ * * * * * @ * * * @ @ @ @ @ @ v v v v C L L L L v L L v v v v v v v L L L v v v v v L C v L ",
"h h h h * h # # @ * @ @ * * * * * * * * * * * * @ * @ @ * * * @ @ h v v v L L L L v v v L v v L L v v v v L v v v v v L L @.L v ",
"h h h h h h h * @ @ # @ * * * h * * * * * * * * * @ @ @ * * * * @ * v v v v v L L v @.v v v v L L v L @.v @.C v @.@.v v L C v L ",
"h h h h h h * * h # h @ * * * @ * @ @ @ * h * * @ @ @ @ h h # @ @ @ * h h h v v v v h v h v h h h h h h h h v h h h h v h v h M ",
"h h h h h h * * * * h # h * h @ * # # @ * * h h # @ @ @ h h # @ * * * @ @ @ @ @ * * * * * * * * @ * * * @ @ @ @ @ @ # @ # h * # ",
"h h h h # # # * h h h * @ # # # * * * @ * * * h # # h h h h # # h * * * * * * * * * * * * @ * * * * * * * * * * * @ * h h h * # ",
"# h h h # # @ # h h h * h # # h h * * * * h h h h h h * h h # # h h * @ * * * * * * * * * @ * * * * * * * * * * @ * h h h h # h ",
"h h # # h # # # # # # @ # # # h h * * h # # # h h # h h # # # # h h @ @ @ * @ * * * * * # @ * h * * * * @ @ @ @ @ # h h # h # h ",
"h h h h h h # h # # h # # # h h h h h h # # h * * h h h h h h # h h h @ @ @ * * * * * * @ @ * h * * h h @ h # @ # # h h @ h h # ",
"h h h h h h h h h h h h h h h * @ # h h # h # # @ h h h h h h h h h * * @ @ @ @ * * * * @ @ @ * * h * * * * h * * h h h h h # h ",
"h h h h h h h h h h h h h h h * @ h h h h h h h # h h h h h h # h h @ @ @ @ @ * * * h h # @ # h h h * * h h h h h h * * h h h h ",
"h h h h h h h h h h h h h h h # # h h @ h h h h h h h h h h h # # @ @ @ @ @ * h h h * @ # @ * * h h * @ @ @ h h h h h # h # h h ",
"h h h h h h h h h h h h h h h h @ @ h * h h h h h h h h h h h h h h # h h * h h h h # h # # h h h h h h # h h h h h h h h h h h ",
"h h h h h h h h h h h h h h h h h h h h h h h h h h h h h h h h h h h h h h # h h h h h h h h h h h h h # # # # h h h h h h h h ",
"h h h h h h h h h h h h h h h h h h h h h h h h h h h h h # * h h h h h h h h h h h h h h h h h h * h h # h h h h h h h h h h h "
};
