/* XPM */
static char *aj7b5_q9usw[] = {
/* columns rows colors chars-per-pixel */
"64 64 192 2 ",
"   c #2E1714",
".  c #2F1915",
"X  c #341713",
"o  c #341A15",
"O  c #3A1B16",
"+  c #361D19",
"@  c #3B1E19",
"#  c #37201D",
"$  c #3D211C",
"%  c #3E2520",
"&  c #3E2823",
"*  c #421E17",
"=  c #4B1F15",
"-  c #411F19",
";  c #472017",
":  c #4B2116",
">  c #43231C",
",  c #4B251D",
"<  c #4D281F",
"1  c #582617",
"2  c #52261D",
"3  c #5B261A",
"4  c #54291E",
"5  c #5B291E",
"6  c #642B1E",
"7  c #6B2D1D",
"8  c #732E1E",
"9  c #7B2F1C",
"0  c #75311E",
"q  c #7C321E",
"w  c #442621",
"e  c #4A2621",
"r  c #462924",
"t  c #4D2923",
"y  c #472B28",
"u  c #4C2D29",
"i  c #522721",
"p  c #5B2720",
"a  c #532C24",
"s  c #5B2D23",
"d  c #532E29",
"f  c #5B2F28",
"g  c #4E312B",
"h  c #563127",
"j  c #5D3126",
"k  c #55312B",
"l  c #5C332B",
"z  c #553530",
"x  c #5C3631",
"c  c #5D3834",
"v  c #5E3A38",
"b  c #632E23",
"n  c #6B2E22",
"m  c #602F28",
"M  c #732F21",
"N  c #782F20",
"B  c #633126",
"V  c #6D3225",
"C  c #63342B",
"Z  c #6C352B",
"A  c #64382E",
"S  c #6B392E",
"D  c #743324",
"F  c #7B3524",
"G  c #753826",
"H  c #7D3826",
"J  c #74362A",
"K  c #7A3729",
"L  c #74392C",
"P  c #7C3A2B",
"I  c #643631",
"U  c #693631",
"Y  c #643A34",
"T  c #6C3B33",
"R  c #633D39",
"E  c #6D3F39",
"W  c #733730",
"Q  c #743C33",
"!  c #7B3D32",
"~  c #743E39",
"^  c #793F39",
"/  c #6A4135",
"(  c #67403E",
")  c #6D413A",
"_  c #754036",
"`  c #7C4136",
"'  c #73423B",
"]  c #7C443B",
"[  c #774A3D",
"{  c #7E483F",
"}  c #6D4542",
"|  c #6A4841",
" . c #744642",
".. c #7D4740",
"X. c #754844",
"o. c #7E4B46",
"O. c #7E4B45",
"+. c #7C4A44",
"@. c #7E4D48",
"#. c #7E4E49",
"$. c #7D4E4B",
"%. c #7F504C",
"&. c #83341E",
"*. c #823623",
"=. c #893721",
"-. c #833926",
";. c #893B24",
":. c #80392D",
">. c #823B2D",
",. c #813B2E",
"<. c #823B2E",
"1. c #813C2F",
"2. c #833C2F",
"3. c #843D2F",
"4. c #833C2B",
"5. c #8A3E2A",
"6. c #803C30",
"7. c #823D31",
"8. c #823E31",
"9. c #813F38",
"0. c #86402E",
"q. c #8A402D",
"w. c #834234",
"e. c #8A4434",
"r. c #8D4837",
"t. c #814239",
"y. c #80443D",
"u. c #83463A",
"i. c #8A4738",
"p. c #84483E",
"a. c #8C4A3C",
"s. c #924936",
"d. c #924C3C",
"f. c #984F3D",
"g. c #96503F",
"h. c #99503F",
"j. c #804741",
"k. c #804C47",
"l. c #834D47",
"z. c #854C43",
"x. c #8B4F46",
"c. c #884F46",
"v. c #8B4D42",
"b. c #804F4A",
"n. c #834F48",
"m. c #884E48",
"M. c #914F42",
"N. c #865047",
"B. c #895047",
"V. c #8A5047",
"C. c #8D5045",
"Z. c #84514B",
"A. c #83504C",
"S. c #83524E",
"D. c #86514C",
"F. c #87524C",
"G. c #84524C",
"H. c #8B524C",
"J. c #89534D",
"K. c #88544D",
"L. c #8B534C",
"P. c #8F584F",
"I. c #935144",
"U. c #9B5444",
"Y. c #915349",
"T. c #905248",
"R. c #915449",
"E. c #91554B",
"W. c #945549",
"Q. c #93554C",
"!. c #91564E",
"~. c #94554B",
"^. c #9B574C",
"/. c #9A574B",
"(. c #94594F",
"). c #9C5A4F",
"_. c #9A594C",
"`. c #845551",
"'. c #895652",
"]. c #8C5650",
"[. c #865855",
"{. c #8C5853",
"}. c #8D5955",
"|. c #8C5953",
" X c #905B56",
".X c #915C57",
"XX c #935A53",
"oX c #985B53",
"OX c #915C58",
"+X c #935D59",
"@X c #A25A4B",
"#X c #A75F50",
/* pixels */
"u r u r w r o w a t t d a a h w u c c Y Y Y Y Y u d T I I ' U U Q f d E U I I I I I d t V Z B s s a a > $ f a a s C i i 2 w t i ",
"Z.F.F.J.K. Xc E !.V.x.T.T.T.^.E R F.#.O.k.k.O.z.c l y.] ] ] ] ] t.U k ^ ~ ~ Q Q Q Q I d 7.8.8.:.:.P :.D d ! L L J J J L V e B J ",
"#.b.#.'.S.'.z Y H.k.V.V.V.x.W.E R F.O.O.O.O.O.O.x l y.] ] ] ` ] t.E k ~ Q ~ Q Q Q Q I d :.! 8.P P P P V t ! J J J J J L V > b n ",
"{.{..X.X}.+Xc ) oX!.!.~.~.~.).E R #.X.X.+.X.X.O.z k ~ Q Q ~ Q ~ ^ A u T I U I I C U f d P L P P P P :.J t J J D D J J J D e b D ",
"w r r u u u + + > > @ > > > e @ + @ o o . $ @ $ @ @ O @ @ o @ - > @ $ > $ > o @ @ @ O @ O @ @ o @ O O O + $ O O @ @ - @ O @ w O ",
"E Y r ) E ) E E E ' Y k { ] ] z.{ ] y.Q d a.a.p.u.p.t.u.t.d ~ ' ' ~ ] ] ] ] d T ^ ~ ~ ~ Q Q Q d C J V V J Q Z J f C n n n n n b ",
"(.N.k XX!.!.L.L.H.!.n.x L.V.z.z.C.z.C.' a v.z.z.a.t.p.u.` e ~ ~ ] ' ] ] ] ] r T ^ ~ Q Q Q Q ! a V P K K P F K K b Z F D D M D D ",
"P.N.d XXL.XXK.XX!.XXk.c !.L.L.C.L.~._.{ h W.C.v.v.z.v.I.p.t { { p.y.y.y.y.y.d Q ] ] ^ ^ ! ^ 9.f Z 4.K K P -.*.*.b S K K K F K K ",
"O.+.d k.O.b.k.k.+.O.) t ) E E E E U U d $ S C C f f d f i + t t t e e t t t + > , e e , e e i @ i p s 5 3 6 6 6 , d 3 3 3 1 1 3 ",
"@ $ + $ @ @ @ @ > > , > > > i > @ d a d d d s i e > s a a f s a a t $ a i t d i e e > $ > > ; , ; - ; - + e , ; < x , > > $ < , ",
"K.F.F.L.F.K.' Y W.~.W._.W.W.@X] C W.v.v.v.v.I.I.] C d.a.a.a.a.d.d.u.k t.w.w.t.t.t.w.! h 8.8.8.8.:.:.8.P h L K K D P P P K s F =.",
"Z.Z.K.{.].{.' l W.T.C.T.C.T.W._ l x.p.y.] p.p.v.' l p.u.u.w.u.a.a.! r t.` ` ] ] ^ Q Q d P ! P P P P P K 2 V D D D D J J J 2 F F ",
"{.'..X+X X+XX.Y )._._.W._.^.#X] l /.T.v.T.~.v.T.] C M.a.a.a.a.d.M.w.u ] ] ] ] ] ~ ^ Q e 8.8.8.8.8.1.1.:.i G P F F K P K K s -.=.",
"Y Y c Y x Y t > d a d a a i i @ + e > > > > > , $ + > > > > , e i ; + t @ @ @ @ @ @ o o ; O O X X O O O o < * * ; ; ; ; ; w a = ",
"k r $ k k l k c z z u t Y l l l Y I x u a ~ ~ Q ~ ` ~ ` S r Q S Q S Q ` Q L a C S Z Z L Z Z V a a b s s C S b b l Y V Z Z J V b ",
"[.X.x  X}.K.F.'.`.|.) E (.L.k.O.O.+.#.c l W.x.M.v.v.M.M.t.> y.p.t.t.u.w.u.i.a T w.8.! ! 8.8.8.b C P P K P K K K b T F P F K F F ",
"%.} k K.b.O.N.S.%.S.( Y n.n.O.O.X.X.b.c h W.C.C.v.T.M.M.] $ p.p.p.u.u.u.u.i.t T w.w.! w.w.8.8.B B P K J J K K P B Q -.1.P P P F ",
"|.} z }.F.K.F.F.S.S.v x z.+.+.+.+.X.X.z d p.p.y.y.t.] ] T + ~ ~ ~ Q Q Q L L > h S Z Z Z Z J J i f V V V n V V V 2 C n V V V D n ",
"% + + w w $ @ + $ $ + @ $ @ + + + $ $ @ $ @ @ $ @ @ > > w w t > e > > t , > > > > $ @ $ > * O o @ o     o > ; > > k > > * @ - - ",
") E ' ' X.O.z z X. . .X.X.X.X.c l j.+.{ { { { z.E Y a.z.z.p.p.y.p.' l i.` ` ! ! ~ ^ Q l ! P P P P P L Z B -.-.-.-.-.-.-.F C P K ",
"J.J.K.K.K.K.E z $.$.#.$.X.X.S.c l x.z.z.j.p.{ z.E l v.j.p.{ y.] p._ h w.` ` Q Q Q Q S a ! ! ! L P P P L a *.*.=.*.F *.F q f G D ",
"].].K.].].].X.c `.%.%.#.S.S.'.R Y !.L.L.x.z.z.T.' I W.C.C.v.v.v.v.] l a.a.u.w.t.` w.~ h e.w.w.8.8.8.8.! j 5.;.=.=.=.=.-.=.B P *.",
"X.X.X.X.' X.k r ( R R R c Y R y w I x C l l h l e w l d d d a d d e @ < > > ; > > , > @ < < i < < 2 i e @ 3 1 1 1 1 3 6 1 w f 1 ",
"> @ + w w > > r w > + @ t t t t d a i > > j f f B C C B s > f B C s B f s s w s s b s s s s s > t e i t i a t a $ , s s s C B 2 ",
"Z.) Y L.H.x.z.z.z.L.Y S U.d.d.d.g.U.U.` C f.g.h.d.d.h.h.a.C d.d.d.a.a.i.s.i.d w.e.e.e.e.e.e.e.s L 1.4.P P P 4.4.s Z *.F F K F F ",
"O.Y z Z.k.O.O.....x.l C W.v.a.M.a.a.I.Q B d.i.d.a.d.a.d.w.l a.a.a.i.u.i.u.w.i 8.e.e.w.4.1.1.8.i J P P K H K K -.5 V F K F F F K ",
"L.' Y L.J.L.H.n.x.~.Y S U.U.U.U.U.U.@X~ C h.d.U.U.U.f.h.a.l d.a.a.i.i.i.i.w.s 1.w.w.1.4.4.1.5.2 V P K K K K K H s b F K D D M M ",
"t > $ r r r r r d k > > i t i a a i a > > t , , , > > , > $ e > $ > $ > > $ @ > O O @ @ O @ O o $ X o X X X X X . w w e > $ > w ",
"U E E U C Y l e T Q _ _ Q Q ~ C a Q T Q { _ T _ C r E Y E E T T E Y u Y I C U U C S C d I C C U U C C C t J V V J L J P V ) J L ",
"v.x.x.x.C.C.{ l T.T.T.I.W.I.U.t.C v.p.z.z.z.z.M._ t ..] { { ] ] ] ~ t Q T Q T Q L L L a Q Q Q L S W W S d 4.F F K F F F 8 f F D ",
"x.x.x.x.z.C.' C W.v.v.v.I.v.T.` C C.z.x.v.x.v.T.] u ..{ { +.{ { { ~ u ~ Q Q Q Q Q Q L f ~ ~ ~ Q Q Q Q Q j -.F H F -.-.*.F f F F ",
"] j.{ ] { { E d p.{ p.p.p.p.v.U a y.] ] ] ] ] y.C w Q U T T U U U l w l f C C l C C b w C C C C m f f f 4 7 6 6 6 6 6 6 1 t b 6 ",
"$ + + w w > > $ $ > + @ > > w > $ > > @ $ > > > $ > w w > $ e w $ $ $ w $ $ $ ; ; , > > > @ > o . o o o + z z k g k a k d R l k ",
"p.l k v.z.p.y.y.] z.l l p.] t.p.u.p.a.U C a.a.i.i.i.i.e.P h u.w.` ! ` ] ` Q j q.q.e.5.4.5.4.4.j S P L L P P P K C P F F F F F F ",
"z.h d z.p.{ { y.] p.l f p.] t.u.u.u.a.S B d.i.i.i.u.e.e.P t w.` ! Q Q Q Q Q i 1.5.e.4.4.4.4.4.4 Z J J J J J D G s J D D D K F F ",
"T.l h T.x.v.z.z.v.M.C C a.p.v.a.a.a.M.S C f.d.d.d.d.d.f.w.d a.u.u.` w.` w.` d e.e.e.q.q.q.q.5.s L P P P P P K H B P *.F F F *.F ",
"C > $ C h l l l h l @ $ d d f C C C S , > C B B B B B Z s @ f d d i i t t e $ b 6 s s 5 5 5 2 O 4 4 4 < , 2 < < > t < < < < < 2 ",
"d d l l a d e + e e t l k i a $ % r w e k u w t $ w a a i i h d h e w d a a d t t i r w 2 < 2 a s t a > u / / ' ' [ ' _ / | Y Y ",
"u.u.a.u.a.a.Q f d.a.a.a.u.d.d.l l a.] p.] ] ] p.C L d.e.i.w.w.e.e.Z B w.8.! ! ! ! ! S B 5.4.-.-.-.-.-.D b &.q q q q &.&.q b V V ",
"] t.p.] ] p.C t p.` t.w.` a.i.f d u.] ] ] ` ~ ] l S i.w.w.w.w.w.w.B f 8.Q Q L L L L C s -.-.H H H K -.n 4 *.q q q F *.*.0 a V Z ",
"] t.t.~ ` u.C e a.u.i.` u.a.a.j d u.t.t.t.t.^ w.h S d.a.r.i.i.i.e.Z j w.! ! ! ! L L C b ;.-.-.-.-.-.;.V 5 =.&.&.&.&.*.&.9 s V V ",
"> $ @ @ $ > @ $ a w $ $ > > e $ # r w w > > > $ + a s i a < t t < > w t > > $ $ $ @ @ > , ; , ; ; ; ; O $ 2 : 2 ; , 4 4 < u r r ",
"_ l i ` _ _ ` ] ` ] d u E Y Y Y Y Y E k d L L L L ! L L C w T C C T Q L S S k L J J P 1.P L G t V n B b B b b V i B J L J P L L ",
"w.C a i.w.w.u.t.a.d.C d ] ~ ~ ~ ' ] { l s e.e.e.w.w.e.s.L r ^ ! ! P P 1.0.1.i 4.4.-.4.5.;.;.=.4 K F H F P P F *.s G F F F F F K ",
"t.C a a.u.a.a.a.a.v.C u +.' ' ' ] ] p.I j e.w.e.i.i.i.r.L r ` ! ! ! w.w.w.P 4 0.5.q.5.q.q.5.;.s L P P G K P P 4.b G -.-.F *.*.4.",
"C t @ S C C S T S Q i w E T Y Y I I U a < P P P P P P w.V > T S L L L L P J ; G K D 0 V V 7 7 * b V V b 7 n 7 6 , B 7 7 7 7 n n ",
"w % % y r r + + $ $ + $ w $ % $ > w % % r w > w w > $ $ $ w w $ w + $ $ $ > + u w w $ $ > $ $ > e > , @ % r > > w k k k t g a a ",
"' T Q T T ] t C t.Q ` ! ` t.` k ! w.! w.` ! ` w.C ! 1.P P P P ! w.j S P J L J P P 1.B B 4.G P P K K 4.V l D D J J D D D b f D M ",
"U T U A I ~ e f ^ S ^ Q Q t.Q e L ! P w.L P 1.1.4 L P P P P P P 4.4 V -.D P G D K 4.5 2 -.D K K D K K 6 2 n V n n D n n b i n n ",
"E Q T Q Q { t C a.! t.^ t.a.u.a ! i.w.i.w.w.w.e.j P w.P w.1.1.0.q.s J 4.K P P P P 4.V 5 4.K P 1.P P -.V 2 D D D J D D D 6 2 M n ",
"w w $ > w t + $ a t t t d d f + a l l l B f f C > j B j C b s s s @ i 5 4 s 5 4 2 4 > $ < ; , > - > - @ $ 2 < , ; 2 i i e z d t ",
"S d $ Y l j l C Y C > r l l f d d h d $ $ a d a s s j j > $ a a i s l h h a & h j j j B j j s w j f s C S B C l t C V V Z ! L J ",
"u.Z < ] ! ! ! P u.w.f f w.P 8.8.P a.i.s a q.P 4.1.H e.q.V < q.4.H 4.H 4.5.F , -.-.F 4.F -.-.F 4 D D F K P J G K d D 9 F F M M M ",
"u.Z , ` Q ` ` Q ` w.s a w.Q ! ! Q u.w.a , 1.G P P L w.1.b ; 4.G K P K 4.4.D > K F G P G H 4.D 2 0 D D D K L G G s D F F F F F F ",
"! s $ ~ S Q L S L P 2 < ! L ! ! P w.w.2 ; 4.P P P P w.4.b ; 4.H 4.-.K 4.4.D > D F F F D F F 0 ; 8 0 D D 7 7 7 7 t B 7 7 7 6 6 6 ",
"e w u k e t $ w a a > k k w w $ w t a @ t j t , > , e t @ w s ; , $ $ < < ; w d , < $ > > ; > @ < ; , > > e e e t C l C l l f f ",
"L Q Q L ~ ^ a C ! J ! ! ! L L > Z L L L w.P J L > V L V D J D D D > j D V Z L J Z J a s P V D D V D F 6 j F F F F F &.&.8 b F K ",
"L L S S Q ^ e b L J L J J L J - V P K K J K K P ; D H D P D F 4.F ; B F D G D D P K 2 , *.n F K D F F 6 4 F q F F q q q 8 f D D ",
"! ! Q ! ~ w.a B 1.P P P 1.P P ; J 4.4.1.P P 4.4., G 4.K 4.K 4.w.-.; b -.K F K K P F 5 4 -.F *.-.K *.*.6 4 &.q &.q 9 q 9 8 5 0 M ",
"a e e w e d + > e , i i i a i o i s 5 5 5 s 5 6 X 4 5 5 5 5 s b b X s 6 s s 2 2 4 s - > 6 2 5 2 2 2 ; O > 6 s s s s f j k R l d ",
"C f $ C C l f l l C d $ j f f j C f f t o t < < d l s d < % d s a l Q f a a + s f s s B B B j w c A l C C S S S Y ` Q Q ! ` P J ",
"! V - ! P J P J J P D , :.P P P K K 4.K ; -.F F P K 4.4.D , P F F K M K K G , F *.F F F F *.q 2 D D D D D F F D 2 D D 9 8 M 8 8 ",
"Q Z O P J J P J K P D , ! L J P G J K D * K J G P D P K D @ G D D K D G J D - D K D F D F F 0 , D G D D D K K D i G D F D F D M ",
"Q Z > ! L ^ ! P P P J > ! J P P G G K G > P G K P G P P D $ L J J J D D J J > D F F K D F *.8 , D G J D D D F D < D D D 8 8 M M "
};
